<?xml version="1.0" encoding="utf-8"?>
<!-- Generator: Adobe Illustrator 26.3.1, SVG Export Plug-In . SVG Version: 6.00 Build 0)  -->
<svg version="1.1" id="Layer_1" xmlns="http://www.w3.org/2000/svg" xmlns:xlink="http://www.w3.org/1999/xlink" x="0px" y="0px"
	 viewBox="0 0 728.9 124.1" style="enable-background:new 0 0 728.9 124.1;" xml:space="preserve">
<style type="text/css">
	.st0{clip-path:url(#SVGID_00000101783033067517626090000004661952927929601965_);}
	.st1{fill:#FFFFFF;}
	.st2{fill:none;stroke:#000000;stroke-width:0.25;}
	.st3{clip-path:url(#SVGID_00000083081425601017909140000002834975201051186336_);}
	.st4{fill:#C1E623;}
</style>
<g id="Layer_2_00000111155976590679105980000012957564158470983312_">
	<g id="Layer_1-2">
		<g id="Group_3072">
			<g>
				<defs>
					<rect id="SVGID_1_" x="382.4" y="22.3" width="343.1" height="79.4"/>
				</defs>
				<clipPath id="SVGID_00000166668862676123865880000007793792803146409641_">
					<use xlink:href="#SVGID_1_"  style="overflow:visible;"/>
				</clipPath>
				<g style="clip-path:url(#SVGID_00000166668862676123865880000007793792803146409641_);">
					<rect x="382.4" y="22.3" class="st1" width="117.2" height="79"/>
					<polygon points="470.4,60.5 469.2,60.5 467.4,60.5 466.8,58.9 466.4,57.8 466,58.9 465.4,60.5 463.6,60.5 462.4,60.5 
						463.4,61.3 464.8,62.3 464.3,63.9 463.9,65 464.9,64.4 466.4,63.4 467.9,64.4 468.8,65 468.5,63.9 468,62.3 469.4,61.3 					
						"/>
					<polygon class="st2" points="470.4,60.5 469.2,60.5 467.4,60.5 466.8,58.9 466.4,57.8 466,58.9 465.4,60.5 463.6,60.5 
						462.4,60.5 463.4,61.3 464.8,62.3 464.3,63.9 463.9,65 464.9,64.4 466.4,63.4 467.9,64.4 468.8,65 468.5,63.9 468,62.3 
						469.4,61.3 					"/>
					<polygon points="461.4,49.5 460.9,51.2 460.6,52.3 461.5,51.6 463,50.6 464.5,51.6 465.5,52.3 465.1,51.2 464.6,49.5 466,48.5 
						467,47.8 465.8,47.8 464,47.7 463.4,46.1 463,45.1 462.6,46.1 462,47.7 460.2,47.8 459,47.8 460,48.5 					"/>
					<polygon class="st2" points="461.4,49.5 460.9,51.2 460.6,52.3 461.5,51.6 463,50.6 464.5,51.6 465.5,52.3 465.1,51.2 
						464.6,49.5 466,48.5 467,47.8 465.8,47.8 464,47.7 463.4,46.1 463,45.1 462.6,46.1 462,47.7 460.2,47.8 459,47.8 460,48.5 
											"/>
					<polygon points="454.8,38.5 454.2,36.9 453.8,35.8 453.4,36.9 452.8,38.5 451,38.5 449.8,38.5 450.8,39.3 452.2,40.3 
						451.7,41.9 451.3,43 452.3,42.4 453.8,41.4 455.3,42.4 456.3,43 455.9,41.9 455.4,40.3 456.8,39.3 457.8,38.5 456.6,38.5 					
						"/>
					<polygon class="st2" points="454.8,38.5 454.2,36.9 453.8,35.8 453.4,36.9 452.8,38.5 451,38.5 449.8,38.5 450.8,39.3 
						452.2,40.3 451.7,41.9 451.3,43 452.3,42.4 453.8,41.4 455.3,42.4 456.3,43 455.9,41.9 455.4,40.3 456.8,39.3 457.8,38.5 
						456.6,38.5 					"/>
					<polygon points="441.9,35.1 441.3,33.5 440.9,32.4 440.5,33.5 439.9,35.1 438.1,35.1 436.9,35.1 437.9,35.8 439.3,36.9 
						438.8,38.5 438.4,39.6 439.4,39 440.9,38 442.4,39 443.3,39.6 443,38.5 442.5,36.9 443.9,35.8 444.9,35.1 443.7,35.1 					"/>
					<polygon class="st2" points="441.9,35.1 441.3,33.5 440.9,32.4 440.5,33.5 439.9,35.1 438.1,35.1 436.9,35.1 437.9,35.8 
						439.3,36.9 438.8,38.5 438.4,39.6 439.4,39 440.9,38 442.4,39 443.3,39.6 443,38.5 442.5,36.9 443.9,35.8 444.9,35.1 
						443.7,35.1 					"/>
					<polygon points="429.1,38.5 428.5,36.9 428.1,35.8 427.7,36.9 427.2,38.5 425.3,38.5 424.1,38.5 425.1,39.3 426.5,40.3 
						426,41.9 425.7,43 426.6,42.4 428.1,41.4 429.6,42.4 430.6,43 430.2,41.9 429.7,40.3 431.1,39.3 432.2,38.5 430.9,38.5 					
						"/>
					<polygon class="st2" points="429.1,38.5 428.5,36.9 428.1,35.8 427.7,36.9 427.2,38.5 425.3,38.5 424.1,38.5 425.1,39.3 
						426.5,40.3 426,41.9 425.7,43 426.6,42.4 428.1,41.4 429.6,42.4 430.6,43 430.2,41.9 429.7,40.3 431.1,39.3 432.2,38.5 
						430.9,38.5 					"/>
					<polygon points="419.8,47.6 419.2,46 418.8,45 418.5,46 417.9,47.6 416.1,47.7 414.8,47.7 415.8,48.4 417.3,49.5 416.7,51.1 
						416.4,52.2 417.3,51.5 418.8,50.6 420.3,51.5 421.3,52.2 420.9,51.1 420.4,49.5 421.8,48.4 422.8,47.7 421.6,47.7 					"/>
					<polygon class="st2" points="419.8,47.6 419.2,46 418.8,45 418.5,46 417.9,47.6 416.1,47.7 414.8,47.7 415.8,48.4 417.3,49.5 
						416.7,51.1 416.4,52.2 417.3,51.5 418.8,50.6 420.3,51.5 421.3,52.2 420.9,51.1 420.4,49.5 421.8,48.4 422.8,47.7 421.6,47.7 
											"/>
					<polygon points="416.8,64.3 417.8,65 417.5,63.9 416.9,62.3 418.4,61.2 419.4,60.5 418.1,60.5 416.3,60.4 415.7,58.8 
						415.4,57.8 415,58.8 414.4,60.4 412.6,60.5 411.4,60.5 412.4,61.2 413.8,62.3 413.3,63.9 412.9,65 413.9,64.3 415.4,63.3 					
						"/>
					<polygon class="st2" points="416.8,64.3 417.8,65 417.5,63.9 416.9,62.3 418.4,61.2 419.4,60.5 418.1,60.5 416.3,60.4 
						415.7,58.8 415.4,57.8 415,58.8 414.4,60.4 412.6,60.5 411.4,60.5 412.4,61.2 413.8,62.3 413.3,63.9 412.9,65 413.9,64.3 
						415.4,63.3 					"/>
					<polygon points="419.8,73.1 419.2,71.5 418.8,70.4 418.4,71.5 417.8,73.1 416,73.1 414.8,73.1 415.8,73.9 417.2,74.9 
						416.7,76.5 416.3,77.6 417.3,77 418.8,76 420.3,77 421.2,77.6 420.9,76.5 420.4,74.9 421.8,73.9 422.8,73.1 421.6,73.1 					
						"/>
					<polygon class="st2" points="419.8,73.1 419.2,71.5 418.8,70.4 418.4,71.5 417.8,73.1 416,73.1 414.8,73.1 415.8,73.9 
						417.2,74.9 416.7,76.5 416.3,77.6 417.3,77 418.8,76 420.3,77 421.2,77.6 420.9,76.5 420.4,74.9 421.8,73.9 422.8,73.1 
						421.6,73.1 					"/>
					<polygon points="429,82.3 428.4,80.7 428,79.7 427.6,80.7 427,82.3 425.2,82.4 424,82.4 425,83.1 426.4,84.1 425.9,85.8 
						425.6,86.9 426.5,86.2 428,85.2 429.5,86.2 430.5,86.9 430.1,85.8 429.6,84.1 431,83.1 432,82.4 430.8,82.4 					"/>
					<polygon class="st2" points="429,82.3 428.4,80.7 428,79.7 427.6,80.7 427,82.3 425.2,82.4 424,82.4 425,83.1 426.4,84.1 
						425.9,85.8 425.6,86.9 426.5,86.2 428,85.2 429.5,86.2 430.5,86.9 430.1,85.8 429.6,84.1 431,83.1 432,82.4 430.8,82.4 					
						"/>
					<polygon points="441.9,85.8 441.3,84.1 440.9,83.1 440.5,84.1 439.9,85.8 438.1,85.8 436.9,85.8 437.9,86.5 439.3,87.6 
						438.8,89.2 438.4,90.3 439.4,89.6 440.9,88.6 442.4,89.6 443.3,90.3 443,89.2 442.5,87.6 443.9,86.5 444.9,85.8 443.7,85.8 
											"/>
					<polygon class="st2" points="441.9,85.8 441.3,84.1 440.9,83.1 440.5,84.1 439.9,85.8 438.1,85.8 436.9,85.8 437.9,86.5 
						439.3,87.6 438.8,89.2 438.4,90.3 439.4,89.6 440.9,88.6 442.4,89.6 443.3,90.3 443,89.2 442.5,87.6 443.9,86.5 444.9,85.8 
						443.7,85.8 					"/>
					<polygon points="454.6,82.4 454.1,80.8 453.7,79.7 453.3,80.8 452.7,82.4 450.9,82.4 449.7,82.4 450.7,83.2 452.1,84.2 
						451.6,85.8 451.2,86.9 452.2,86.3 453.7,85.3 455.2,86.3 456.1,86.9 455.8,85.8 455.3,84.2 456.7,83.2 457.7,82.4 456.4,82.4 
											"/>
					<polygon class="st2" points="454.6,82.4 454.1,80.8 453.7,79.7 453.3,80.8 452.7,82.4 450.9,82.4 449.7,82.4 450.7,83.2 
						452.1,84.2 451.6,85.8 451.2,86.9 452.2,86.3 453.7,85.3 455.2,86.3 456.1,86.9 455.8,85.8 455.3,84.2 456.7,83.2 457.7,82.4 
						456.4,82.4 					"/>
					<polygon points="463.9,73.2 463.3,71.6 463,70.5 462.6,71.6 462,73.2 460.2,73.2 459,73.2 460,74 461.4,75 460.9,76.6 
						460.5,77.7 461.5,77.1 463,76.1 464.4,77.1 465.4,77.7 465,76.6 464.5,75 466,74 467,73.2 465.7,73.2 					"/>
					<polygon class="st2" points="463.9,73.2 463.3,71.6 463,70.5 462.6,71.6 462,73.2 460.2,73.2 459,73.2 460,74 461.4,75 
						460.9,76.6 460.5,77.7 461.5,77.1 463,76.1 464.4,77.1 465.4,77.7 465,76.6 464.5,75 466,74 467,73.2 465.7,73.2 					"/>
					<g>
						<defs>
							<rect id="SVGID_00000046324344714273091270000001658195685584455334_" x="382.4" y="22.3" width="343.1" height="79.4"/>
						</defs>
						<clipPath id="SVGID_00000132771908003191125350000002585694197404094889_">
							<use xlink:href="#SVGID_00000046324344714273091270000001658195685584455334_"  style="overflow:visible;"/>
						</clipPath>
						<g style="clip-path:url(#SVGID_00000132771908003191125350000002585694197404094889_);">
							<path class="st1" d="M524.7,38.1l2.3,0.6c-0.3,1.6-1.2,3.1-2.5,4.2c-1.3,1-2.9,1.5-4.5,1.5c-1.6,0.1-3.1-0.3-4.5-1.1
								c-1.2-0.8-2.1-1.9-2.6-3.2c-0.6-1.4-0.9-3-0.9-4.5c0-1.6,0.3-3.2,1-4.6c0.6-1.3,1.6-2.3,2.9-3c1.3-0.7,2.7-1,4.1-1
								c1.5,0,3,0.4,4.3,1.3c1.2,0.9,2,2.2,2.4,3.6l-2.2,0.5c-0.3-1.1-0.9-2-1.7-2.7c-0.8-0.6-1.8-0.9-2.8-0.8c-1.2,0-2.3,0.3-3.2,1
								c-0.9,0.6-1.5,1.5-1.8,2.5c-0.4,1-0.5,2.1-0.5,3.3c0,1.3,0.2,2.6,0.6,3.8c0.4,1,1,1.9,2,2.4c0.9,0.5,1.9,0.8,2.9,0.8
								c1.2,0,2.3-0.4,3.2-1.1C524,40.5,524.6,39.3,524.7,38.1"/>
							<path class="st1" d="M528.7,37.9c-0.1-1.9,0.5-3.7,1.9-5c1.1-0.9,2.5-1.4,3.9-1.4c1.6-0.1,3.1,0.5,4.1,1.7
								c1.1,1.2,1.7,2.9,1.6,4.5c0.1,1.3-0.2,2.6-0.7,3.7c-0.5,0.9-1.2,1.6-2.1,2.1c-0.9,0.5-1.9,0.8-3,0.8c-1.5,0.1-3-0.5-4.1-1.6
								C529.2,41.4,528.7,39.7,528.7,37.9 M530.9,37.9c-0.1,1.3,0.3,2.5,1,3.5c1.2,1.4,3.4,1.6,4.8,0.4c0,0,0,0,0,0
								c0.1-0.1,0.2-0.2,0.3-0.3c0.8-1,1.1-2.3,1-3.6c0.1-1.2-0.3-2.4-1-3.4c-1.2-1.4-3.4-1.6-4.8-0.3c0,0,0,0,0,0
								c-0.1,0.1-0.2,0.2-0.3,0.3C531.2,35.5,530.8,36.7,530.9,37.9"/>
							<path class="st1" d="M543.1,44.1V33.4h-1.8v-1.6h1.8v-1.3c0-0.6,0-1.2,0.2-1.8c0.2-0.5,0.6-1,1.1-1.3
								c0.6-0.4,1.4-0.5,2.1-0.5c0.6,0,1.3,0.1,1.9,0.2l-0.3,1.8c-0.4-0.1-0.8-0.1-1.2-0.1c-0.5,0-1,0.1-1.3,0.4
								c-0.3,0.4-0.5,1-0.4,1.5v1.1h2.4v1.6h-2.4v10.6L543.1,44.1z"/>
							<path class="st1" d="M549.2,27.1h2.1v2.4h-2.1V27.1z M549.2,31.8h2.1v12.3h-2.1V31.8z"/>
							<path class="st1" d="M554.5,44.1V31.8h1.9v1.7c0.9-1.3,2.3-2.1,3.9-2c0.7,0,1.4,0.1,2,0.4c0.5,0.2,1,0.6,1.4,1
								c0.3,0.5,0.5,1,0.6,1.5c0.1,0.7,0.1,1.3,0.1,2V44h-2v-7.4c0-0.6-0.1-1.3-0.2-1.9c-0.2-0.4-0.5-0.8-0.9-1
								c-0.4-0.3-0.9-0.4-1.5-0.4c-0.8,0-1.6,0.3-2.3,0.8c-0.8,0.9-1.1,2-1,3.2v6.7H554.5z"/>
							<path class="st1" d="M575.6,42.5c-0.7,0.6-1.4,1.1-2.3,1.4c-0.7,0.3-1.5,0.4-2.3,0.4c-1.1,0.1-2.2-0.3-3.1-1
								c-0.7-0.6-1.2-1.6-1.1-2.5c0-1.1,0.5-2.2,1.5-2.8c0.5-0.3,1-0.5,1.5-0.7c0.6-0.1,1.2-0.2,1.8-0.3c1.3-0.1,2.5-0.4,3.7-0.7
								v-0.5c0.1-0.7-0.1-1.3-0.6-1.8c-0.7-0.5-1.5-0.8-2.4-0.7c-0.8-0.1-1.5,0.1-2.2,0.5c-0.5,0.5-0.9,1.1-1,1.8l-2-0.3
								c0.1-0.8,0.5-1.5,0.9-2.1c0.5-0.6,1.2-1,1.9-1.2c0.9-0.3,1.8-0.4,2.8-0.4c0.9,0,1.7,0.1,2.6,0.4c0.6,0.2,1.1,0.5,1.5,0.9
								c0.3,0.4,0.5,0.9,0.6,1.4c0.1,0.6,0.1,1.3,0.1,1.9v2.8c0,1.2,0,2.4,0.1,3.7c0.1,0.5,0.3,1,0.5,1.5H576
								C575.8,43.6,575.7,43.1,575.6,42.5 M575.5,37.9c-1.1,0.4-2.2,0.6-3.4,0.8c-0.6,0.1-1.2,0.2-1.8,0.4c-0.3,0.1-0.6,0.4-0.8,0.7
								c-0.5,0.8-0.4,1.8,0.3,2.4c0.5,0.4,1.2,0.6,1.8,0.6c0.7,0,1.5-0.2,2.1-0.5c0.6-0.3,1.1-0.8,1.4-1.4c0.3-0.7,0.4-1.4,0.3-2.1
								L575.5,37.9z"/>
							<path class="st1" d="M580.8,44.1V31.8h1.9v1.7c0.9-1.3,2.3-2.1,3.9-2c0.7,0,1.4,0.1,2,0.4c0.5,0.2,1,0.6,1.4,1
								c0.3,0.5,0.5,1,0.6,1.5c0.1,0.7,0.1,1.4,0.1,2v7.5h-2.1v-7.5c0-0.6,0-1.3-0.2-1.9c-0.2-0.4-0.5-0.8-0.9-1
								c-0.4-0.3-0.9-0.4-1.4-0.4c-0.8,0-1.6,0.3-2.3,0.8c-0.8,0.9-1.1,2-1,3.2v6.7H580.8z"/>
							<path class="st1" d="M601.9,39.6l2,0.3c-0.2,1.3-0.8,2.5-1.7,3.3c-0.9,0.8-2.2,1.2-3.4,1.2c-1.5,0.1-3-0.5-4-1.7
								c-1.1-1.3-1.6-3-1.5-4.7c0-1.2,0.2-2.4,0.7-3.5c0.4-1,1.1-1.8,2-2.3c0.9-0.5,1.9-0.7,2.9-0.7c1.2-0.1,2.3,0.3,3.3,1
								c0.9,0.7,1.5,1.7,1.6,2.9l-2,0.3c-0.1-0.7-0.5-1.4-1-1.9c-0.5-0.4-1.1-0.6-1.8-0.6c-1,0-1.9,0.4-2.5,1.1
								c-0.7,1-1.1,2.3-1,3.6c-0.1,1.3,0.2,2.5,1,3.6c0.6,0.7,1.5,1.2,2.5,1.1c0.8,0,1.5-0.2,2-0.7
								C601.5,41.2,601.9,40.4,601.9,39.6"/>
							<path class="st1" d="M605.8,27.1h2.1v2.4h-2.1V27.1z M605.8,31.8h2.1v12.3h-2.1V31.8z"/>
							<path class="st1" d="M619,42.5c-0.7,0.6-1.4,1.1-2.3,1.4c-0.7,0.3-1.5,0.4-2.3,0.4c-1.1,0.1-2.2-0.3-3.1-1
								c-0.7-0.6-1.2-1.6-1.1-2.5c0-1.1,0.5-2.2,1.5-2.8c0.5-0.3,1-0.5,1.5-0.7c0.6-0.1,1.2-0.3,1.8-0.3c1.3-0.1,2.5-0.4,3.7-0.7
								c0-0.3,0-0.5,0-0.5c0.1-0.7-0.1-1.3-0.6-1.8c-0.7-0.5-1.5-0.8-2.4-0.7c-0.8-0.1-1.5,0.1-2.2,0.5c-0.5,0.5-0.9,1.1-1,1.8
								l-2-0.3c0.1-0.8,0.5-1.5,0.9-2.1c0.5-0.6,1.2-1,1.9-1.2c0.9-0.3,1.8-0.5,2.8-0.4c0.9,0,1.7,0.1,2.6,0.4
								c0.6,0.2,1.1,0.5,1.4,0.9c0.3,0.4,0.6,0.9,0.6,1.4c0.1,0.6,0.1,1.3,0.1,1.9v2.8c0,1.2,0,2.4,0.1,3.7c0.1,0.5,0.3,1,0.5,1.5
								h-2.2C619.2,43.6,619.1,43.1,619,42.5 M618.9,37.9c-1.1,0.4-2.2,0.6-3.4,0.8c-0.6,0.1-1.2,0.2-1.8,0.4
								c-0.3,0.1-0.6,0.4-0.8,0.7c-0.5,0.8-0.3,1.8,0.4,2.4c0.5,0.4,1.2,0.6,1.8,0.6c0.7,0,1.5-0.2,2.1-0.5c0.6-0.3,1.1-0.8,1.4-1.4
								c0.3-0.7,0.4-1.4,0.3-2.1L618.9,37.9z"/>
							<path class="st1" d="M632.1,44.1v-1.5c-0.7,1.2-2,1.9-3.4,1.8c-1,0-1.9-0.3-2.7-0.8c-0.8-0.6-1.5-1.3-1.9-2.3
								c-0.5-1-0.7-2.2-0.7-3.3c0-1.1,0.2-2.3,0.6-3.3c0.7-1.9,2.5-3.1,4.5-3.1c1.3,0,2.6,0.6,3.4,1.7v-6.1h2.1v16.9H632.1z
								 M625.6,37.9c-0.1,1.3,0.3,2.5,1,3.5c0.6,0.7,1.4,1.1,2.3,1.1c0.9,0,1.7-0.4,2.3-1.1c0.7-1,1.1-2.2,1-3.4
								c0.1-1.3-0.2-2.6-1-3.7c-0.6-0.7-1.5-1.2-2.4-1.1c-0.9,0-1.7,0.4-2.3,1.1C625.8,35.4,625.5,36.7,625.6,37.9"/>
							<path class="st1" d="M636.6,37.9c-0.2-1.9,0.5-3.7,1.9-5c1.1-0.9,2.5-1.4,3.9-1.4c1.5-0.1,3.1,0.5,4.1,1.7
								c1.1,1.2,1.7,2.9,1.6,4.5c0.1,1.3-0.2,2.6-0.7,3.7c-0.5,0.9-1.2,1.6-2.1,2.1c-0.9,0.5-1.9,0.8-3,0.8
								c-1.5,0.1-3.1-0.5-4.2-1.6C637,41.4,636.4,39.7,636.6,37.9 M638.7,37.9c-0.1,1.3,0.3,2.5,1,3.5c1.2,1.4,3.4,1.6,4.8,0.4
								c0,0,0,0,0,0c0.1-0.1,0.2-0.2,0.3-0.3c0.8-1,1.1-2.3,1-3.6c0.1-1.2-0.3-2.4-1-3.4c-1.2-1.4-3.4-1.6-4.8-0.3c0,0,0,0,0,0
								c-0.1,0.1-0.2,0.2-0.3,0.3C639,35.5,638.6,36.7,638.7,37.9"/>
							<path class="st1" d="M657,48.7v-17h1.9v1.6c0.4-0.6,0.9-1.1,1.5-1.4c0.6-0.3,1.3-0.5,2-0.5c1,0,2,0.3,2.8,0.8
								c0.8,0.6,1.4,1.3,1.8,2.3c0.8,2.1,0.8,4.5-0.1,6.6c-0.8,1.9-2.6,3.1-4.7,3.1c-0.6,0-1.3-0.1-1.9-0.4c-0.5-0.3-1-0.7-1.4-1.1
								v6H657z M658.9,38c-0.1,1.2,0.2,2.5,1,3.5c0.6,0.7,1.4,1.1,2.3,1.1c0.9,0,1.8-0.4,2.4-1.1c0.7-1.1,1.1-2.3,1-3.6
								c0.1-1.2-0.2-2.5-1-3.5c-0.5-0.7-1.4-1.1-2.3-1.1c-0.9,0-1.8,0.5-2.3,1.2C659.2,35.5,658.9,36.8,658.9,38L658.9,38z"/>
							<path class="st1" d="M669.4,37.9c-0.1-1.9,0.5-3.7,1.9-5c1.1-0.9,2.5-1.4,3.9-1.4c1.5-0.1,3,0.5,4.1,1.7
								c1.1,1.2,1.7,2.9,1.6,4.5c0.1,1.3-0.2,2.6-0.7,3.7c-0.5,0.9-1.2,1.6-2.1,2.1c-0.9,0.5-1.9,0.8-3,0.8c-1.5,0.1-3-0.5-4.1-1.6
								C669.9,41.4,669.4,39.7,669.4,37.9 M671.6,37.9c-0.1,1.3,0.3,2.5,1,3.5c1.2,1.4,3.4,1.6,4.8,0.4c0,0,0,0,0,0
								c0.1-0.1,0.2-0.2,0.3-0.3c0.8-1,1.1-2.3,1-3.6c0.1-1.2-0.3-2.4-1-3.4c-1.2-1.4-3.4-1.6-4.8-0.3c0,0,0,0,0,0
								c-0.1,0.1-0.2,0.2-0.3,0.3C671.9,35.5,671.5,36.7,671.6,37.9L671.6,37.9z"/>
							<path class="st1" d="M683.3,44.1V31.8h1.9v1.9c0.3-0.6,0.8-1.2,1.3-1.7c0.4-0.3,0.9-0.4,1.3-0.4c0.8,0,1.5,0.2,2.1,0.7
								l-0.7,1.9c-0.5-0.3-1-0.4-1.5-0.5c-0.4,0-0.9,0.1-1.2,0.4c-0.4,0.3-0.6,0.7-0.8,1.1c-0.2,0.8-0.4,1.6-0.3,2.4v6.4L683.3,44.1
								z"/>
							<path class="st1" d="M706.2,40.1l2.2,0.3c-0.3,1.2-1,2.2-1.9,2.9c-1,0.7-2.3,1.1-3.5,1c-1.6,0.1-3.1-0.5-4.3-1.7
								c-1.1-1.3-1.6-3-1.5-4.7c-0.1-1.7,0.5-3.5,1.6-4.8c1.1-1.1,2.6-1.8,4.1-1.7c1.5-0.1,3,0.6,4,1.7c1.1,1.3,1.7,3,1.6,4.7
								c0,0.1,0,0.3,0,0.5h-9.2c0,1.1,0.4,2.2,1.1,3.1c0.7,0.7,1.6,1.1,2.6,1.1c0.7,0,1.4-0.2,2-0.6C705.6,41.5,706,40.9,706.2,40.1
								 M699.4,36.7h6.8c0-0.8-0.3-1.6-0.8-2.3c-0.6-0.8-1.6-1.3-2.6-1.2c-0.9,0-1.8,0.3-2.4,1C699.7,34.9,699.4,35.8,699.4,36.7"/>
							<rect x="710.9" y="27.1" class="st1" width="2.1" height="16.9"/>
							<path class="st1" d="M512.4,75.3v-17h1.9v1.6c0.4-0.6,0.9-1.1,1.5-1.4c0.6-0.3,1.4-0.4,2.1-0.4c1,0,2,0.3,2.8,0.8
								c0.8,0.6,1.4,1.3,1.8,2.3c0.9,2.1,0.9,4.5,0,6.6c-0.4,0.9-1.1,1.7-2,2.3c-0.8,0.5-1.7,0.8-2.7,0.8c-0.6,0-1.3-0.1-1.9-0.4
								c-0.5-0.3-1-0.7-1.4-1.1v6L512.4,75.3z M514.3,64.5c-0.1,1.2,0.2,2.5,1,3.5c0.5,0.7,1.4,1.1,2.3,1.1c0.9,0,1.8-0.4,2.4-1.1
								c0.7-1.1,1.1-2.3,1-3.6c0.1-1.2-0.2-2.5-1-3.5c-0.5-0.7-1.4-1.1-2.3-1.1c-0.9,0-1.8,0.5-2.4,1.2
								C514.5,62,514.2,63.3,514.3,64.5"/>
							<path class="st1" d="M525.5,70.5V58.3h1.9v1.9c0.3-0.7,0.8-1.2,1.3-1.7c0.4-0.3,0.9-0.4,1.3-0.4c0.8,0,1.5,0.2,2.1,0.7
								l-0.7,1.9c-0.5-0.3-1-0.4-1.5-0.5c-0.4,0-0.9,0.1-1.2,0.4c-0.4,0.3-0.6,0.7-0.8,1.1c-0.2,0.8-0.4,1.6-0.3,2.4v6.4H525.5z"/>
							<path class="st1" d="M532.6,64.4c-0.1-1.9,0.5-3.7,1.9-5c1.1-0.9,2.5-1.4,3.9-1.3c1.5-0.1,3,0.5,4.1,1.7
								c1.1,1.2,1.7,2.9,1.6,4.5c0.1,1.3-0.2,2.6-0.7,3.7c-0.5,0.9-1.2,1.6-2.1,2.1c-0.9,0.5-1.9,0.8-3,0.7
								c-1.6,0.1-3.1-0.5-4.2-1.7C533.1,67.9,532.5,66.2,532.6,64.4 M534.8,64.4c-0.1,1.3,0.3,2.5,1,3.5c1.2,1.4,3.4,1.6,4.8,0.4
								c0,0,0,0,0,0c0.1-0.1,0.2-0.2,0.3-0.3c0.8-1,1.1-2.3,1-3.6c0.1-1.2-0.3-2.4-1-3.4c-1.2-1.4-3.4-1.6-4.8-0.4c0,0,0,0,0,0
								l-0.3,0.3C535,62,534.7,63.2,534.8,64.4"/>
							<path class="st1" d="M546.3,71.6l2,0.3c0,0.5,0.3,1,0.7,1.4c0.6,0.4,1.4,0.6,2.1,0.6c0.8,0.1,1.6-0.1,2.3-0.6
								c0.5-0.4,0.9-1,1.1-1.6c0.1-0.9,0.2-1.8,0.1-2.7c-0.8,1-2.1,1.6-3.4,1.6c-1.5,0.1-3-0.6-3.9-1.8c-0.9-1.3-1.4-2.8-1.4-4.4
								c0-1.1,0.2-2.2,0.6-3.2c0.4-0.9,1-1.7,1.8-2.3c0.8-0.6,1.8-0.8,2.8-0.8c1.4,0,2.7,0.6,3.6,1.7v-1.5h1.9v10.6
								c0.1,1.4-0.1,2.8-0.6,4.1c-0.4,0.8-1.1,1.5-1.9,1.9c-1,0.5-2,0.7-3.1,0.7c-1.3,0.1-2.5-0.3-3.6-1
								C546.6,73.8,546.1,72.7,546.3,71.6 M548,64.2c-0.1,1.3,0.2,2.5,1,3.5c1.1,1.3,3.2,1.5,4.5,0.3c0.1-0.1,0.2-0.2,0.3-0.3
								c0.7-1,1.1-2.2,1-3.5c0.1-1.2-0.3-2.4-1-3.4c-0.6-0.7-1.5-1.1-2.4-1.1c-0.9,0-1.8,0.4-2.3,1.1C548.2,61.8,547.9,63,548,64.2"
								/>
							<path class="st1" d="M559.7,70.5V58.3h1.9v1.9c0.3-0.7,0.8-1.3,1.3-1.7c0.4-0.3,0.9-0.4,1.3-0.4c0.8,0,1.5,0.2,2.1,0.7
								l-0.7,1.9c-0.5-0.3-1-0.4-1.5-0.5c-0.4,0-0.9,0.1-1.2,0.4c-0.4,0.3-0.6,0.7-0.8,1.1c-0.2,0.8-0.4,1.6-0.3,2.4v6.4H559.7z"/>
							<path class="st1" d="M575.6,69c-0.7,0.6-1.4,1.1-2.3,1.4c-0.7,0.3-1.5,0.4-2.3,0.4c-1.1,0.1-2.2-0.3-3.1-1
								c-0.7-0.6-1.2-1.6-1.1-2.5c0-1.1,0.5-2.2,1.5-2.8c0.5-0.3,1-0.5,1.5-0.7c0.6-0.1,1.2-0.3,1.8-0.3c1.3-0.1,2.5-0.4,3.7-0.7
								v-0.5c0.1-0.7-0.1-1.3-0.6-1.8c-0.7-0.5-1.5-0.8-2.4-0.7c-0.8-0.1-1.5,0.1-2.2,0.5c-0.5,0.5-0.9,1.1-1,1.8l-2-0.3
								c0.1-0.8,0.5-1.5,0.9-2.1c0.5-0.6,1.1-1,1.8-1.2c0.9-0.3,1.8-0.5,2.8-0.4c0.9,0,1.7,0.1,2.6,0.4c0.6,0.2,1.1,0.5,1.5,0.9
								c0.3,0.4,0.5,0.9,0.6,1.4c0.1,0.6,0.1,1.3,0.1,1.9v2.8c0,1.2,0,2.4,0.1,3.7c0.1,0.5,0.3,1,0.5,1.5H576
								C575.7,70.1,575.6,69.6,575.6,69 M575.4,64.4c-1.1,0.4-2.2,0.6-3.4,0.8c-0.6,0.1-1.2,0.2-1.8,0.4c-0.3,0.1-0.6,0.4-0.8,0.7
								c-0.5,0.8-0.4,1.8,0.3,2.4c0.5,0.4,1.2,0.6,1.8,0.6c0.7,0,1.5-0.2,2.1-0.5c0.6-0.3,1.1-0.8,1.4-1.4c0.3-0.7,0.4-1.4,0.3-2.1
								L575.4,64.4z"/>
							<path class="st1" d="M580.8,70.5V58.3h1.9V60c0.8-1.3,2.2-2,3.7-2c0.8,0,1.6,0.2,2.3,0.6c0.6,0.4,1,0.9,1.2,1.6
								c0.8-1.3,2.2-2.1,3.8-2.1c1-0.1,2.1,0.3,2.8,1c0.7,0.9,1.1,2,1,3.1v8.4h-2.1v-7.7c0-0.6,0-1.2-0.2-1.8
								c-0.1-0.4-0.4-0.7-0.7-0.9c-0.4-0.2-0.8-0.3-1.2-0.3c-0.8,0-1.6,0.3-2.1,0.9c-0.6,0.8-0.9,1.8-0.9,2.8v7.1h-2.1v-7.9
								c0.1-0.7-0.1-1.5-0.5-2.1c-0.4-0.5-1-0.7-1.7-0.7c-0.6,0-1.1,0.2-1.6,0.5c-0.5,0.3-0.9,0.8-1.1,1.4c-0.3,0.8-0.4,1.7-0.3,2.6
								v6.3H580.8z"/>
							<path class="st1" d="M608.5,69c-0.7,0.6-1.4,1.1-2.3,1.4c-0.7,0.3-1.5,0.4-2.3,0.4c-1.1,0.1-2.2-0.3-3.1-1
								c-1.1-1.1-1.4-2.8-0.7-4.2c0.3-0.5,0.6-0.9,1.1-1.2c0.5-0.3,1-0.5,1.5-0.7c0.6-0.1,1.2-0.3,1.8-0.3c1.3-0.1,2.5-0.4,3.7-0.7
								v-0.5c0.1-0.7-0.1-1.3-0.6-1.8c-0.7-0.5-1.5-0.8-2.4-0.7c-0.8-0.1-1.5,0.1-2.2,0.5c-0.5,0.5-0.9,1.1-1,1.8l-2-0.3
								c0.1-0.8,0.4-1.5,0.9-2.1c0.5-0.6,1.1-1,1.8-1.2c0.9-0.3,1.8-0.5,2.8-0.4c0.9,0,1.7,0.1,2.6,0.4c0.6,0.2,1.1,0.5,1.5,0.9
								c0.3,0.4,0.5,0.9,0.6,1.4c0.1,0.6,0.1,1.3,0.1,1.9v2.8c0,1.2,0,2.4,0.1,3.7c0.1,0.5,0.3,1,0.5,1.5h-2.2
								C608.7,70.1,608.5,69.6,608.5,69 M608.3,64.4c-1.1,0.4-2.2,0.6-3.4,0.8c-0.6,0.1-1.2,0.2-1.8,0.4c-0.3,0.1-0.6,0.4-0.8,0.7
								c-0.5,0.8-0.3,1.8,0.3,2.4c0.5,0.4,1.2,0.6,1.8,0.6c0.7,0,1.5-0.2,2.1-0.5c0.6-0.3,1.1-0.8,1.4-1.4c0.3-0.7,0.4-1.4,0.3-2.1
								L608.3,64.4z"/>
							<polygon class="st1" points="620.5,70.5 620.5,53.6 632.8,53.6 632.8,55.6 622.8,55.6 622.8,60.8 632.1,60.8 632.1,62.8 
								622.8,62.8 622.8,68.5 633.2,68.5 633.2,70.5 							"/>
							<path class="st1" d="M636,70.5V58.3h1.9v1.9c0.3-0.7,0.8-1.2,1.3-1.7c0.4-0.3,0.9-0.4,1.3-0.4c0.8,0,1.5,0.2,2.1,0.7
								l-0.7,1.9c-0.5-0.3-1-0.4-1.5-0.5c-0.4,0-0.9,0.1-1.2,0.4c-0.4,0.3-0.6,0.7-0.8,1.1c-0.2,0.8-0.4,1.6-0.4,2.4v6.4H636z"/>
							<path class="st1" d="M651.9,69c-0.7,0.6-1.4,1.1-2.3,1.4c-0.7,0.3-1.5,0.4-2.3,0.4c-1.1,0.1-2.2-0.3-3.1-1
								c-0.7-0.6-1.1-1.6-1.1-2.5c0-1.1,0.5-2.2,1.5-2.8c0.5-0.3,1-0.5,1.5-0.7c0.6-0.1,1.2-0.3,1.8-0.3c1.3-0.1,2.5-0.4,3.7-0.7
								c0-0.3,0-0.5,0-0.5c0.1-0.7-0.1-1.3-0.6-1.8c-0.7-0.5-1.5-0.8-2.4-0.7c-0.8-0.1-1.5,0.1-2.2,0.5c-0.5,0.5-0.9,1.1-1,1.8
								l-2-0.3c0.1-0.8,0.5-1.5,0.9-2.1c0.5-0.6,1.1-1,1.8-1.2c0.9-0.3,1.8-0.5,2.8-0.4c0.9,0,1.7,0.1,2.6,0.4
								c0.6,0.2,1.1,0.5,1.5,0.9c0.3,0.4,0.6,0.9,0.6,1.4c0.1,0.6,0.1,1.3,0.1,1.9v2.8c0,1.2,0,2.4,0.1,3.7c0.1,0.5,0.3,1,0.5,1.5
								h-2.2C652,70.1,651.8,69.6,651.9,69 M651.6,64.4c-1.1,0.4-2.2,0.6-3.4,0.8c-0.6,0.1-1.2,0.2-1.8,0.4c-0.9,0.4-1.4,1.4-1,2.3
								c0.1,0.3,0.3,0.5,0.5,0.7c0.5,0.4,1.2,0.6,1.8,0.6c0.7,0,1.5-0.2,2.1-0.5c0.6-0.3,1.1-0.8,1.4-1.4c0.3-0.7,0.4-1.4,0.3-2.1
								L651.6,64.4z"/>
							<path class="st1" d="M656.2,66.9l2.1-0.3c0.1,0.7,0.4,1.4,1,1.9c0.7,0.5,1.5,0.7,2.3,0.7c0.8,0.1,1.5-0.1,2.1-0.6
								c0.4-0.3,0.7-0.9,0.7-1.4c0-0.5-0.2-0.9-0.6-1.1c-0.7-0.3-1.4-0.6-2.1-0.7c-1.1-0.2-2.1-0.6-3.2-1c-1.1-0.5-1.8-1.6-1.8-2.8
								c0-0.5,0.1-1,0.4-1.5c0.3-0.5,0.6-0.8,1-1.1c0.4-0.3,0.8-0.5,1.3-0.6c0.6-0.2,1.2-0.2,1.8-0.2c0.9,0,1.7,0.1,2.5,0.4
								c0.6,0.2,1.2,0.6,1.6,1.1c0.4,0.6,0.6,1.2,0.7,1.9l-2,0.3c-0.1-0.6-0.3-1.1-0.8-1.5c-0.5-0.4-1.2-0.6-1.9-0.5
								c-0.7-0.1-1.4,0.1-2,0.5c-0.4,0.3-0.6,0.7-0.6,1.1c0,0.3,0.1,0.5,0.2,0.7c0.2,0.3,0.5,0.4,0.8,0.6c0.2,0.1,0.8,0.3,1.8,0.5
								c1,0.3,2.1,0.6,3.1,1c1.2,0.4,1.9,1.6,1.9,2.9c0,0.7-0.2,1.4-0.6,2c-0.4,0.6-1,1.1-1.8,1.4c-0.8,0.4-1.7,0.5-2.6,0.5
								c-1.3,0.1-2.6-0.3-3.6-1C656.9,69.1,656.3,68,656.2,66.9"/>
							<path class="st1" d="M668.8,70.5V58.3h1.9V60c0.8-1.3,2.3-2,3.8-2c0.8,0,1.6,0.2,2.3,0.6c0.5,0.4,0.9,0.9,1.1,1.5
								c0.8-1.3,2.3-2.1,3.8-2.1c1-0.1,2.1,0.3,2.8,1c0.7,0.9,1.1,2,1,3.1v8.4h-2.1v-7.7c0-0.6,0-1.2-0.2-1.8
								c-0.1-0.4-0.4-0.7-0.7-0.9c-0.4-0.2-0.8-0.4-1.2-0.3c-0.8,0-1.6,0.3-2.1,0.9c-0.6,0.8-0.9,1.8-0.9,2.8v7.1h-2.1v-7.9
								c0.1-0.7-0.1-1.5-0.5-2.1c-0.4-0.5-1-0.7-1.7-0.7c-0.6,0-1.1,0.2-1.6,0.5c-0.5,0.3-0.9,0.8-1.1,1.4c-0.3,0.8-0.4,1.7-0.3,2.6
								v6.3H668.8z"/>
							<path class="st1" d="M696.6,70.5v-1.8c-0.9,1.3-2.3,2.1-3.9,2.1c-0.7,0-1.4-0.1-2-0.4c-0.6-0.2-1.1-0.6-1.4-1
								c-0.3-0.5-0.5-1-0.6-1.5c-0.1-0.6-0.1-1.3-0.1-1.9v-7.6h2.1v6.8c0,0.7,0,1.5,0.1,2.2c0.1,0.5,0.4,1,0.8,1.3
								c0.5,0.3,1,0.5,1.6,0.5c0.6,0,1.2-0.2,1.7-0.5c0.5-0.3,0.9-0.8,1.1-1.3c0.3-0.8,0.4-1.6,0.3-2.4v-6.6h2.1v12.3H696.6z"/>
							<path class="st1" d="M700.9,66.9l2.1-0.3c0.1,0.7,0.4,1.4,1,1.9c0.7,0.5,1.5,0.7,2.3,0.7c0.8,0.1,1.5-0.1,2.1-0.6
								c0.4-0.3,0.7-0.8,0.7-1.4c0-0.5-0.2-0.9-0.6-1.1c-0.7-0.3-1.4-0.6-2.1-0.7c-1.1-0.2-2.1-0.6-3.2-1c-1.6-0.7-2.2-2.6-1.5-4.1
								c0-0.1,0.1-0.1,0.1-0.2c0.2-0.5,0.6-0.8,1-1.1c0.4-0.3,0.8-0.5,1.3-0.6c0.6-0.2,1.2-0.2,1.8-0.2c0.9,0,1.7,0.1,2.5,0.4
								c0.6,0.2,1.2,0.6,1.6,1.1c0.4,0.6,0.6,1.2,0.7,1.9l-2,0.3c-0.1-0.6-0.4-1.1-0.8-1.5c-0.5-0.4-1.2-0.6-1.9-0.5
								c-0.7-0.1-1.4,0.1-2.1,0.5c-0.4,0.3-0.6,0.7-0.6,1.1c0,0.3,0.1,0.5,0.3,0.7c0.2,0.3,0.5,0.4,0.8,0.6c0.2,0.1,0.8,0.3,1.8,0.5
								c1,0.3,2.1,0.6,3.1,1c0.6,0.2,1,0.6,1.4,1.1c0.3,0.5,0.5,1.1,0.5,1.8c0,0.7-0.2,1.4-0.6,2c-0.4,0.6-1,1.1-1.7,1.4
								c-0.8,0.4-1.7,0.5-2.6,0.5c-1.3,0.1-2.6-0.3-3.6-1C701.6,69.2,701.1,68.1,700.9,66.9"/>
							<polygon class="st1" points="717.9,67.8 717.9,63.2 713.3,63.2 713.3,61.2 717.9,61.2 717.9,56.6 719.9,56.6 719.9,61.2 
								724.5,61.2 724.5,63.2 719.9,63.2 719.9,67.8 							"/>
							<path class="st1" d="M520.4,97v-1.5c-0.7,1.2-2,1.9-3.4,1.8c-1,0-1.9-0.3-2.7-0.8c-0.8-0.6-1.5-1.3-1.9-2.3
								c-0.5-1-0.7-2.2-0.7-3.3c0-1.1,0.2-2.3,0.6-3.3c0.4-0.9,1-1.7,1.8-2.3c0.8-0.5,1.8-0.8,2.7-0.8c1.3,0,2.6,0.6,3.4,1.7v-6.1
								h2.1V97L520.4,97z M513.8,90.9c-0.1,1.3,0.3,2.5,1,3.5c0.6,0.7,1.4,1.1,2.3,1.1c0.9,0,1.7-0.4,2.3-1.1c0.7-1,1.1-2.2,1-3.4
								c0.1-1.3-0.2-2.6-1-3.7c-0.6-0.7-1.5-1.1-2.4-1.1c-0.9,0-1.7,0.4-2.3,1.1C514,88.4,513.7,89.6,513.8,90.9"/>
							<path class="st1" d="M534,93.1l2.2,0.3c-0.3,1.2-0.9,2.2-1.9,2.9c-2.4,1.6-5.6,1.3-7.8-0.6c-1.1-1.3-1.7-3-1.6-4.7
								c-0.1-1.7,0.5-3.5,1.6-4.8c1.1-1.1,2.6-1.8,4.1-1.7c1.5,0,3,0.6,4,1.7c1.1,1.3,1.7,3,1.6,4.7v0.6H527c0,1.1,0.4,2.2,1.1,3.1
								c0.7,0.7,1.6,1.1,2.6,1.1c0.7,0,1.4-0.2,2-0.6C533.3,94.5,533.7,93.8,534,93.1 M527.1,89.7h6.8c0-0.8-0.3-1.6-0.8-2.3
								c-0.6-0.8-1.6-1.2-2.6-1.2c-0.9,0-1.8,0.3-2.4,1C527.5,87.9,527.1,88.8,527.1,89.7"/>
							<rect x="545.2" y="80.1" class="st1" width="2.1" height="16.9"/>
							<path class="st1" d="M558.5,95.5c-0.7,0.6-1.4,1-2.3,1.4c-0.7,0.3-1.5,0.4-2.3,0.4c-1.1,0.1-2.2-0.3-3.1-1
								c-0.7-0.6-1.1-1.6-1.1-2.5c0-0.6,0.1-1.1,0.4-1.6c0.3-0.5,0.7-0.9,1.1-1.1c0.5-0.3,1-0.5,1.5-0.7c0.6-0.1,1.2-0.2,1.8-0.3
								c1.3-0.1,2.5-0.4,3.7-0.7v-0.6c0.1-0.7-0.1-1.3-0.6-1.8c-0.7-0.5-1.5-0.8-2.4-0.7c-0.8-0.1-1.5,0.1-2.2,0.5
								c-0.5,0.5-0.9,1.1-1,1.8l-2-0.3c0.1-0.8,0.5-1.5,0.9-2.1c0.5-0.6,1.1-1,1.8-1.2c0.9-0.3,1.8-0.5,2.8-0.4
								c0.9,0,1.7,0.1,2.6,0.4c1.1,0.3,1.9,1.2,2.1,2.3c0.1,0.6,0.1,1.3,0.1,1.9v2.8c0,1.2,0,2.5,0.1,3.7c0.1,0.5,0.3,1,0.5,1.5
								h-2.2C558.7,96.5,558.6,96,558.5,95.5 M558.4,90.9c-1.1,0.4-2.2,0.7-3.4,0.8c-0.6,0.1-1.2,0.2-1.8,0.4
								c-0.3,0.1-0.6,0.4-0.8,0.7c-0.5,0.8-0.3,1.8,0.3,2.4c0.5,0.4,1.2,0.6,1.8,0.6c0.7,0,1.5-0.2,2.1-0.5c0.6-0.3,1.1-0.8,1.4-1.4
								c0.3-0.7,0.4-1.4,0.3-2.1L558.4,90.9z"/>
							<path class="st1" d="M581.6,80.1h2.3v9.8c0,1.4-0.1,2.7-0.6,4.1c-0.4,1-1.1,1.9-2.1,2.4c-1.2,0.7-2.6,1-3.9,0.9
								c-1.3,0-2.7-0.2-3.9-0.8c-1-0.5-1.8-1.3-2.2-2.4c-0.5-1.4-0.7-2.8-0.7-4.2v-9.8h2.3v9.8c-0.1,1.1,0.1,2.2,0.4,3.2
								c0.3,0.7,0.7,1.3,1.4,1.6c0.7,0.4,1.6,0.6,2.4,0.6c1.3,0.1,2.6-0.3,3.5-1.1c0.9-1.3,1.2-2.8,1-4.3L581.6,80.1z"/>
							<path class="st1" d="M587.3,97V84.8h1.9v1.7c0.8-1.3,2.3-2.1,3.9-2c0.7,0,1.4,0.1,2,0.4c0.5,0.2,1,0.6,1.4,1
								c0.3,0.5,0.5,1,0.7,1.5c0.1,0.7,0.1,1.3,0.1,2V97h-2.1v-7.5c0-0.6,0-1.3-0.2-1.9c-0.2-0.4-0.5-0.8-0.9-1
								c-0.4-0.3-0.9-0.4-1.5-0.4c-0.8,0-1.6,0.3-2.3,0.9c-0.8,0.9-1.1,2-1,3.2V97L587.3,97z"/>
							<path class="st1" d="M600.5,80.1h2.1v2.4h-2.1V80.1z M600.5,84.8h2.1V97h-2.1V84.8z"/>
							<path class="st1" d="M605,91c-0.2-1.9,0.5-3.7,1.9-5c1.1-0.9,2.4-1.4,3.9-1.4c1.5-0.1,3,0.5,4.1,1.6c1.1,1.3,1.7,2.9,1.6,4.6
								c0.1,1.3-0.2,2.6-0.7,3.7c-0.5,0.9-1.2,1.6-2.1,2.1c-0.9,0.5-1.9,0.8-3,0.7c-1.6,0.1-3.1-0.5-4.2-1.6
								C605.4,94.4,604.9,92.7,605,91 M607.1,91c-0.1,1.3,0.3,2.5,1,3.5c1.2,1.4,3.4,1.6,4.8,0.4c0,0,0,0,0,0
								c0.1-0.1,0.2-0.2,0.3-0.3c0.8-1,1.1-2.3,1-3.6c0.1-1.2-0.3-2.4-1-3.4c-1.2-1.4-3.4-1.6-4.8-0.4c0,0,0,0,0,0
								c-0.1,0.1-0.2,0.2-0.3,0.3C607.4,88.5,607,89.7,607.1,91L607.1,91z M609.6,83.3l1.5-3.2h2.7l-2.5,3.2H609.6z"/>
							<path class="st1" d="M618.9,97V84.8h1.9v1.7c0.8-1.3,2.3-2.1,3.9-2c0.7,0,1.4,0.1,2,0.4c0.6,0.2,1,0.6,1.4,1
								c0.3,0.5,0.5,1,0.6,1.5c0.1,0.7,0.1,1.3,0.1,2V97h-2v-7.5c0-0.6-0.1-1.3-0.2-1.9c-0.2-0.4-0.5-0.8-0.9-1
								c-0.4-0.3-0.9-0.4-1.5-0.4c-0.8,0-1.6,0.3-2.3,0.9c-0.8,0.9-1.1,2-1,3.2V97L618.9,97z"/>
							<polygon class="st1" points="639,97 639,80.1 651.2,80.1 651.2,82.1 641.2,82.1 641.2,87.3 650.6,87.3 650.6,89.3 
								641.2,89.3 641.2,95 651.6,95 651.6,97 							"/>
							<path class="st1" d="M662.4,97v-1.8c-0.8,1.3-2.3,2.1-3.9,2.1c-0.7,0-1.4-0.1-2-0.4c-0.6-0.2-1-0.6-1.4-1.1
								c-0.3-0.4-0.5-0.9-0.7-1.5c-0.1-0.6-0.1-1.3-0.1-1.9v-7.6h2.1v6.8c0,0.7,0,1.5,0.1,2.2c0.1,0.5,0.4,1,0.8,1.3
								c0.5,0.3,1,0.5,1.6,0.5c0.6,0,1.2-0.2,1.8-0.5c0.5-0.3,0.9-0.8,1.1-1.3c0.3-0.8,0.4-1.6,0.3-2.4v-6.6h2.1V97H662.4z"/>
							<path class="st1" d="M667.5,97V84.8h1.9v1.9c0.3-0.7,0.8-1.2,1.3-1.7c0.4-0.3,0.9-0.4,1.3-0.4c0.8,0,1.5,0.2,2.1,0.7
								l-0.7,1.9c-0.5-0.3-1-0.4-1.5-0.4c-0.4,0-0.9,0.1-1.2,0.4c-0.4,0.3-0.6,0.7-0.8,1.1c-0.2,0.8-0.4,1.6-0.4,2.4V97L667.5,97z"
								/>
							<path class="st1" d="M674.7,91c-0.1-1.9,0.5-3.7,1.9-5c1.1-0.9,2.5-1.4,3.9-1.4c1.5-0.1,3.1,0.5,4.1,1.6
								c1.1,1.3,1.7,2.9,1.6,4.6c0.1,1.3-0.2,2.6-0.7,3.7c-0.5,0.9-1.2,1.6-2.1,2.1c-0.9,0.5-1.9,0.8-3,0.7
								c-1.6,0.1-3.1-0.5-4.2-1.6C675.1,94.4,674.5,92.7,674.7,91 M676.8,91c-0.1,1.3,0.3,2.5,1,3.5c1.2,1.4,3.4,1.6,4.8,0.4
								c0,0,0,0,0,0c0.1-0.1,0.2-0.2,0.3-0.3c0.8-1,1.1-2.3,1-3.6c0.1-1.2-0.3-2.4-1-3.4c-1.2-1.4-3.4-1.6-4.8-0.4c0,0,0,0,0,0
								c-0.1,0.1-0.2,0.2-0.3,0.3C677.1,88.5,676.7,89.7,676.8,91"/>
							<path class="st1" d="M688.6,101.7v-17h1.9v1.7c0.4-0.6,0.9-1.1,1.5-1.4c0.6-0.3,1.3-0.5,2.1-0.5c2,0,3.8,1.2,4.5,3.1
								c0.4,1,0.6,2.1,0.6,3.2c0,1.2-0.2,2.3-0.7,3.4c-0.8,1.9-2.6,3.1-4.7,3.1c-0.6,0-1.3-0.1-1.9-0.4c-0.5-0.3-1-0.7-1.4-1.1v6
								L688.6,101.7z M690.5,91c-0.1,1.3,0.3,2.5,1,3.5c0.5,0.7,1.4,1.1,2.3,1.1c0.9,0,1.8-0.4,2.4-1.1c0.7-1.1,1.1-2.3,1-3.6
								c0.1-1.2-0.3-2.5-1-3.5c-0.5-0.7-1.4-1.1-2.3-1.1c-0.9,0-1.8,0.4-2.4,1.2C690.7,88.4,690.4,89.7,690.5,91"/>
							<path class="st1" d="M710.1,93.1l2.2,0.3c-0.3,1.2-0.9,2.2-1.9,2.9c-2.4,1.6-5.6,1.3-7.8-0.6c-1.1-1.3-1.7-3-1.6-4.7
								c-0.1-1.7,0.5-3.5,1.6-4.8c1.1-1.1,2.6-1.8,4.1-1.7c1.5,0,3,0.6,4,1.7c1.1,1.3,1.7,3,1.6,4.7c0,0.1,0,0.3,0,0.6h-9.1
								c0,1.1,0.4,2.2,1.1,3.1c0.7,0.7,1.6,1.1,2.6,1.1c0.7,0,1.4-0.2,2-0.6C709.5,94.5,710,93.8,710.1,93.1 M703.4,89.7h6.8
								c0-0.8-0.3-1.6-0.8-2.3c-0.6-0.8-1.6-1.2-2.6-1.2c-0.9,0-1.8,0.3-2.4,1C703.7,87.9,703.4,88.8,703.4,89.7L703.4,89.7z"/>
							<path class="st1" d="M722.9,95.5c-0.7,0.6-1.4,1.1-2.3,1.4c-0.7,0.3-1.5,0.4-2.3,0.4c-1.1,0.1-2.2-0.3-3.1-1
								c-0.7-0.6-1.2-1.6-1.1-2.5c0-1.1,0.5-2.2,1.5-2.8c0.5-0.3,1-0.5,1.5-0.7c0.6-0.1,1.2-0.2,1.8-0.3c1.3-0.1,2.5-0.4,3.7-0.7
								c0-0.3,0-0.5,0-0.5c0.1-0.7-0.1-1.3-0.6-1.8c-0.7-0.5-1.5-0.8-2.4-0.7c-0.8-0.1-1.5,0.1-2.2,0.5c-0.5,0.5-0.9,1.1-1,1.8
								l-2-0.3c0.1-0.8,0.5-1.5,0.9-2.1c0.5-0.6,1.1-1,1.8-1.2c0.9-0.3,1.8-0.5,2.8-0.4c0.9,0,1.7,0.1,2.6,0.4
								c0.6,0.2,1.1,0.5,1.5,0.9c0.3,0.4,0.5,0.9,0.6,1.4c0.1,0.6,0.1,1.3,0.1,1.9v2.8c0,1.2,0,2.5,0.1,3.7c0.1,0.5,0.3,1,0.5,1.5
								h-2.2C723,96.5,722.9,96,722.9,95.5 M722.7,90.8c-1.1,0.4-2.2,0.7-3.4,0.8c-0.6,0.1-1.2,0.3-1.8,0.5
								c-0.3,0.1-0.6,0.4-0.8,0.7c-0.5,0.8-0.3,1.8,0.3,2.4c0.5,0.4,1.2,0.6,1.8,0.6c0.7,0,1.5-0.2,2.1-0.5c0.6-0.3,1.1-0.8,1.4-1.4
								c0.3-0.7,0.4-1.4,0.3-2.1L722.7,90.8z"/>
						</g>
					</g>
				</g>
			</g>
		</g>
		<g>
			<g>
				<path class="st4" d="M169.6,43.2c-2.8-1.2-3.8-0.3-4.6,2.2c-6,20.1-12.1,40.3-18.2,60.4c-1.5,5.1-5.5,7.3-9.8,5
					c-1.7-0.9-3.3-3-3.9-4.9c-6.4-20.1-12.6-40.3-18.8-60.5c-0.3-1-0.6-1.9-0.9-3c-2.7-0.7-3.7,0.1-3.7,3.1c0.1,19.5,0.1,39,0,58.5
					c0,6.6-5.3,10-11.3,6.9c-1.3-0.7-2.2-2.3-2.9-3.7c-0.5-1-0.2-2.4-0.2-3.6c0-26.6,0-53.2,0-79.8c0-6.4,1.4-8.3,7.7-9.7
					c2.5-0.5,5.1-0.8,7.6-0.4c5.6,0.8,9.4,3.8,11.1,9.6c5.7,19.8,11.5,39.5,17.3,59.2c0.3,1,0.6,1.9,1.2,3.7
					c1.6-5.7,2.9-10.6,4.3-15.4c4.4-15.5,9.1-30.9,12.9-46.6c2.1-8.4,9.8-11.9,17.4-10.5c7.4,1.3,9.1,3.4,9.1,10.9
					c0,26.6,0,53.2,0,79.8c0,5.7-2,7.6-7.7,7.4c-4.7-0.1-6.6-2-6.6-6.8c0-19.3,0-38.5,0-57.8C169.6,45.7,169.6,44.4,169.6,43.2z"/>
				<path class="st4" d="M233.5,26c-1.5,4.6-2.9,8.6-4.2,12.6c-7.3,22.5-14.7,45.1-22,67.6c-1.9,5.8-4.6,7.1-10.1,5.1
					c-4.5-1.7-5.6-4-4.1-8.6c6.6-20.1,13.2-40.2,19.8-60.2c2.5-7.6,5.1-15.2,7.5-22.8c1.1-3.5,3.2-5.6,6.9-5.8
					c4.2-0.2,8.4-0.3,12.6-0.1c3.6,0.2,5.8,2.8,6.9,6.1c9.2,27.8,18.3,55.6,27.3,83.4c1.4,4.2-0.3,6.8-4.8,8.3
					c-4.8,1.5-7.6,0.3-9.1-4.4c-4.8-14.4-9.4-28.8-14.1-43.1c-3.8-11.5-7.5-23-11.3-34.6C234.4,28.4,234.1,27.5,233.5,26z"/>
				<path class="st4" d="M303.4,26.1c-7.1,0-13.7,0-20.2,0c-4.2,0-5.8-1.8-5.8-6.3c0-4.4,1.4-6,5.6-6c18.4,0,36.8,0,55.1,0
					c4.4,0,5.6,1.4,5.6,6c0,4.9-1.3,6.3-5.6,6.4c-6.3,0-12.7,0-19,0.1c-0.2,0-0.4,0.1-1.1,0.4c0,1.1,0,2.4,0,3.7
					c0,24.7,0,49.5,0,74.2c0,5.6-2,7.5-7.4,7.5c-5.3,0-7.2-1.9-7.2-7.3c0-24.7,0-49.5,0-74.2C303.4,29.1,303.4,27.8,303.4,26.1z"/>
				<path class="st4" d="M35.5,62.5c0,13.9,0,27.8,0,41.8c0,2.6,0.1,5.8-2.9,6.4c-3,0.7-6.4,0.5-9.2-0.4c-1.3-0.4-2.3-3.7-2.3-5.7
					C20.8,95.7,21,86.8,21,77.9c0-18.9,0-37.9,0-56.8c0-6.3,2.3-8.4,8.6-7.8c4.2,0.4,5.9,2.1,5.9,6.5C35.6,33.9,35.5,48.2,35.5,62.5
					z"/>
				<path class="st4" d="M65.9,68.7c-4,0-8,0.1-12,0c-4.1-0.1-5.9-2-5.9-6c0-4.2,1.8-6.3,5.9-6.4c8-0.1,16-0.1,24,0
					c4.2,0.1,5.8,2,5.8,6.4c0,4.1-1.6,5.9-5.8,6C73.9,68.8,69.9,68.7,65.9,68.7z"/>
				<path class="st4" d="M233,90.9c-5.1-0.1-9.1-4.4-9-9.6c0.1-5.2,4.3-9.2,9.5-9.2c5.3,0.1,9.4,4.4,9.2,9.8
					C242.5,87.1,238.2,91.1,233,90.9z"/>
			</g>
		</g>
	</g>
</g>
</svg>
